# xmcd
#
# Track frame offsets:
#	150
#	24886
#	43447
#	65016
#	79693
#	100397
#	118139
#	136520
#	156053
#	175705
#
# Disc length: 2602 seconds
#
# Revision: 2
# Processed by: cddbd v1.5.2PL0 Copyright (c) Steve Scherf et al.
# Submitted via: audiograbber 1.83.01
#
DISCID=7c0a280a
DTITLE=Verschiedene - Vamos Merengue
DYEAR=2005
DGENRE=Latin
TTITLE0=Jimmy Borges - Latinos
TTITLE1=Gerald Terol - A que te Pego Mi Mania
TTITLE2=Jimmy Borges - El Mueve Mueve
TTITLE3=Gerald Terol - Wow Flash
TTITLE4=Jeff Rayo - Mal Acostumbrado
TTITLE5=Gerald Terol - Me Rompio El Corazon
TTITLE6=Mauro Galante - Tra Tra
TTITLE7=Pedro Peralta - Cuando El Amor Se Dana
TTITLE8=Jimmy Borges - Azul
TTITLE9=Gerald Terol - Cuando Acaba El Placer
EXTD=
EXTT0=
EXTT1=
EXTT2=
EXTT3=
EXTT4=
EXTT5=
EXTT6=
EXTT7=
EXTT8=
EXTT9=
PLAYORDER=
